inDegrees=no
num_controls=7
num_derivatives=13
num_iterations=108
num_multipliers=7
num_parameters=0
num_slacks=7
num_states=26
objective=0.486240
objective_accelerations=0.021469
objective_balance=0.002375
objective_effort=0.024914
objective_height=0.431261
objective_ligament=0.006221
solver_duration=1400.553231
status=Solve_Succeeded
success=true
DataType=double
version=3
OpenSimVersion=4.5
endheader
time	/jointset/ground_pelvis/pelvis_tilt/value	/jointset/ground_pelvis/pelvis_tx/value	/jointset/ground_pelvis/pelvis_ty/value	/jointset/hip_l/hip_flexion_l/value	/jointset/hip_l/hip_adduction_l/value	/jointset/hip_l/hip_rotation_l/value	/jointset/back/lumbar_extension/value	/jointset/patellofemoral_l/patellar_flexion_l/value	/jointset/knee_l/knee_flexion_l/value	/jointset/knee_l/knee_adduction_l/value	/jointset/knee_l/knee_rotation_l/value	/jointset/ankle_l/ankle_angle_l/value	/jointset/subtalar_l/subtalar_angle_l/value	/jointset/ground_pelvis/pelvis_tilt/speed	/jointset/ground_pelvis/pelvis_tx/speed	/jointset/ground_pelvis/pelvis_ty/speed	/jointset/hip_l/hip_flexion_l/speed	/jointset/hip_l/hip_adduction_l/speed	/jointset/hip_l/hip_rotation_l/speed	/jointset/back/lumbar_extension/speed	/jointset/patellofemoral_l/patellar_flexion_l/speed	/jointset/knee_l/knee_flexion_l/speed	/jointset/knee_l/knee_adduction_l/speed	/jointset/knee_l/knee_rotation_l/speed	/jointset/ankle_l/ankle_angle_l/speed	/jointset/subtalar_l/subtalar_angle_l/speed	/forceset/tau_hip_flexion_l	/forceset/tau_hip_adduction_l	/forceset/tau_hip_rotation_l	/forceset/tau_knee_flexion_l	/forceset/tau_ankle_angle_l	/forceset/tau_subtalar_angle_l	/forceset/tau_lumbar_extension	lambda_cid13_p0	lambda_cid13_p1	lambda_cid13_p2	lambda_cid13_p3	lambda_cid13_p4	lambda_cid13_p5	lambda_cid14_p0	/jointset/ground_pelvis/pelvis_tilt/accel	/jointset/ground_pelvis/pelvis_tx/accel	/jointset/ground_pelvis/pelvis_ty/accel	/jointset/hip_l/hip_flexion_l/accel	/jointset/hip_l/hip_adduction_l/accel	/jointset/hip_l/hip_rotation_l/accel	/jointset/back/lumbar_extension/accel	/jointset/patellofemoral_l/patellar_flexion_l/accel	/jointset/knee_l/knee_flexion_l/accel	/jointset/knee_l/knee_adduction_l/accel	/jointset/knee_l/knee_rotation_l/accel	/jointset/ankle_l/ankle_angle_l/accel	/jointset/subtalar_l/subtalar_angle_l/accel	gamma_cid13_p0	gamma_cid13_p1	gamma_cid13_p2	gamma_cid13_p3	gamma_cid13_p4	gamma_cid13_p5	gamma_cid14_p0
0.5	0.1835400948300362	0.05559538030549164	0.8814785944666418	0.3589077808512428	-0.3358107224422626	-0.1319832177920237	-0.7329256134930587	0.7538229940419471	0.7538229940419432	-0.1346097561683209	-0.1745179003218603	0.2667046427848258	0.05279720097120714	0.5554744149988275	-0.002862862447955109	-0.1688571189968449	0.1453205244985992	-0.07627883138613538	0.4120527845409728	-0.8544771459500514	1.286587454374092	1.286587454374089	0.07500036417667526	-0.0001713650412837055	0.6767188638167441	0.179529531798259	-0.05187977504657468	0.02193991764866301	-0.007656668073518361	-0.312226343392679	0.02508227804655638	0.0279695390175664	0.1896905677460318	-36.4533488171003	-7.917639821060267	3.267437561361052	5.174097341598611	-698.578619943916	-81.3604678294052	-16.14325067211271	-0.5813700156231119	-0.009457328773869808	-0.1671251491315107	-0.1076155342433093	0.1561201506974374	-0.4523482304592946	0.9811873338490773	-1.358937095444164	-1.358937095444164	-0.2576580321879465	0.02139569223616054	-0.7646339054401278	0.0400908174240712	7.170083172533611e-09	5.656877411291251e-08	-3.851478257945014e-08	4.773372301719542e-09	-6.801572252599991e-09	7.465427602505378e-08	6.872502534624625e-09
0.51	0.1890650065398269	0.05556627706152887	0.8797821096855692	0.3603553404803702	-0.3365656829672229	-0.1278856066852193	-0.7414202106045185	0.7666190484062642	0.7666190484062605	-0.1338727761922428	-0.1745183914298161	0.2734326311794782	0.05459415508490977	0.5494344951581678	-0.002958520069745451	-0.1703932906393698	0.14415912673635	-0.07471479580496466	0.4074368697544176	-0.8443362300907746	1.272432461367701	1.272432461367699	0.07237463889148188	8.106425985575369e-05	0.668778926749058	0.1798190863284981	-0.05208174776870644	0.02292019706004443	-0.007671063159090331	-0.3168609177138524	0.02275504912360912	0.02802173148570937	0.191920493276945	-37.32554524792793	-7.717672500465662	3.15569261336776	5.588057611546303	-700.8428327144803	-81.38816475255217	-15.69175769705325	-0.6263174438068365	-0.009728826458708151	-0.1398819212946926	-0.125242977004248	0.1563209570885047	-0.47109012610601	1.046450649638959	-1.472425667697672	-1.472425667697617	-0.2681721509165846	0.02834912660928767	-0.8236542804565037	0.01705068789357162	9.651681407694544e-09	7.661238003647955e-08	-4.601501107557868e-08	5.790737965468158e-09	-1.112750705349123e-09	9.356913933156918e-08	8.411159877321411e-09
0.52	0.194527316156107	0.05553619547183277	0.8780716594381749	0.3617903179159174	-0.3373050479973191	-0.1238351301309511	-0.7498102171698512	0.7792678237876249	0.7792678237876217	-0.1331626819438629	-0.1745161217292491	0.2800782240688489	0.05639273732732872	0.542953996296731	-0.003058531594619495	-0.1716502122611636	0.1428040857825605	-0.07315973241332804	0.4026258740337675	-0.8335590367246187	1.257131657782864	1.257131657782862	0.06962321863702647	0.0003807966632363304	0.6602397627604253	0.1798551575415267	-0.05228372049083817	0.02390047647142593	-0.007685458244662269	-0.3214954920350259	0.02042782020066188	0.0280739239538525	0.1941504188078583	-38.20305545869158	-7.514142420175836	3.040373092307946	6.016113463182505	-703.1733811271581	-81.42310854984477	-15.24003564646298	-0.6694858197784831	-0.01032810939061033	-0.1112751449853113	-0.1463441725513142	0.1543257127906228	-0.4913644172782533	1.108442835224898	-1.588099211133518	-1.588099211133518	-0.2827970260403522	0.03085631268269916	-0.8844792896295206	-0.01060584601803885	1.092073975901977e-08	8.077651625476709e-08	-4.603194528458799e-08	5.254853885590342e-09	4.07645726184912e-09	9.860022238352264e-08	8.269850625898857e-09
0.53	0.1999226701635018	0.05550509094416407	0.8763500496827783	0.3632108529483399	-0.3380287878175559	-0.1198342981257134	-0.7580893555100101	0.7917580885810346	0.7917580885810305	-0.132480083486911	-0.1745109306362778	0.2866355678049434	0.05819061136357559	0.5360498950187744	-0.003163262598617312	-0.1726232658722775	0.1412735498011478	-0.0715780279206005	0.3974482616566962	-0.8221727529598067	1.240747766301752	1.240747766301752	0.06694220644061138	0.0006347772557761657	0.6511406766261711	0.1796965740116396	-0.05246546752034597	0.02484816340668245	-0.007706968893679224	-0.3261157877097197	0.01819832038037947	0.02813760427844139	0.1963452046255728	-39.04569628288091	-7.321030554566749	2.925941597870035	6.399781370843728	-705.4625902719324	-81.48448398178726	-14.78852012099096	-0.7109086091962297	-0.01067790015303065	-0.08304816687244056	-0.1608137872577551	0.1616270812113796	-0.5447912655314709	1.168102899213187	-1.689565945318564	-1.689565945318193	-0.2538859276224491	0.0192672575831331	-0.9358662279153581	-0.02195373406307874	1.194926847863361e-08	9.24206718530476e-08	-4.847620700790893e-08	5.836877290865867e-09	7.803086186130482e-09	1.099376369028446e-07	8.599034623595609e-09
0.54	0.2052469758926387	0.05547291264560566	0.8746201638517309	0.3646152015256841	-0.3387364037401259	-0.1158880085677684	-0.7662517546621002	0.8040793080938892	0.8040793080938844	-0.1318229216741592	-0.1745038800723724	0.2930992720891769	0.05998620573900577	0.5287443406451363	-0.003273285772561794	-0.1733054273913115	0.1395667947668748	-0.06993495287997052	0.3917173845752289	-0.8102111991108413	1.223322601671899	1.223322601671901	0.0645358897969831	0.0007526908500563025	0.6415118723882373	0.1793992253781911	-0.05264721454985374	0.02579585034193901	-0.00772847954269616	-0.3307360833844126	0.01596882056009706	0.02820128460303048	0.1985399904432757	-39.894739720098	-7.124413595555001	2.808228695479978	6.80154981368857	-707.8316700632435	-81.55465422207875	-14.33774004557366	-0.7497764389147992	-0.01138654337994349	-0.05309672656931907	-0.1815879831233726	0.1665998223711107	-0.6020173581574707	1.22349685205555	-1.796353840881785	-1.796353840881781	-0.2278579154828583	0.003642913030759639	-0.9904229103654255	-0.0383588667303062	1.271167930784336e-08	1.123405935738736e-07	-5.360602257685127e-08	7.655734509502549e-09	9.911542552291023e-09	1.282522692158508e-07	9.448764343722238e-09
0.55	0.2104962585081078	0.05543962131978885	0.8728849134264153	0.3660014947910821	-0.339427670127233	-0.1120011779808254	-0.7742917012693646	0.8162210754818504	0.8162210754818474	-0.1311895360556423	-0.1744963939200426	0.2994639706203203	0.06177754529871876	0.5210502506555548	-0.003384586264101217	-0.1736954043723591	0.1376488169782951	-0.0683479820949526	0.385616624567893	-0.7976875464142753	1.20485469315261	1.204854693152611	0.06207417543047743	0.0007073916054793532	0.6313306036784885	0.1787824619117856	-0.05280186195071726	0.02667410027252447	-0.007737908491756649	-0.3353493560717148	0.01388677751042535	0.02823546107110809	0.2006956599839881	-40.69330360376207	-6.918913641623638	2.683492921801263	7.160106474474699	-710.1284406994487	-81.60178973594823	-13.88830398777809	-0.7885153541673244	-0.01094110346837537	-0.02455797662720505	-0.2033592624756019	0.1502999070299495	-0.618910235682089	1.280385867623892	-1.898438755063929	-1.898438755064285	-0.2653749063060271	-0.014193682270231	-1.046558992835656	-0.08628167705486361	1.400263370355824e-08	1.258174526415027e-07	-5.875234771197305e-08	8.561369940850836e-09	1.302407640156749e-08	1.389302830955761e-07	1.051619786751868e-08
